<mxfile host="65bd71144e">
    <diagram id="Axf9yFwMceH62Wtd0Wu3" name="Page-2">
        <mxGraphModel dx="730" dy="1527" grid="1" gridSize="10" guides="1" tooltips="1" connect="1" arrows="1" fold="1" page="1" pageScale="1" pageWidth="850" pageHeight="1100" math="0" shadow="0">
            <root>
                <mxCell id="0"/>
                <mxCell id="1" parent="0"/>
                <mxCell id="H6KbDGVIdgGkGumHNcC8-9" style="edgeStyle=none;html=1;entryX=0.056;entryY=0.8;entryDx=0;entryDy=0;entryPerimeter=0;fontSize=12;" parent="1" source="H6KbDGVIdgGkGumHNcC8-1" target="H6KbDGVIdgGkGumHNcC8-3" edge="1">
                    <mxGeometry relative="1" as="geometry"/>
                </mxCell>
                <mxCell id="H6KbDGVIdgGkGumHNcC8-10" style="edgeStyle=none;html=1;entryX=0.031;entryY=0.233;entryDx=0;entryDy=0;entryPerimeter=0;fontSize=12;" parent="1" source="H6KbDGVIdgGkGumHNcC8-1" target="H6KbDGVIdgGkGumHNcC8-4" edge="1">
                    <mxGeometry relative="1" as="geometry"/>
                </mxCell>
                <mxCell id="H6KbDGVIdgGkGumHNcC8-11" style="edgeStyle=none;html=1;entryX=0;entryY=1;entryDx=0;entryDy=0;fontSize=12;" parent="1" source="H6KbDGVIdgGkGumHNcC8-1" target="H6KbDGVIdgGkGumHNcC8-2" edge="1">
                    <mxGeometry relative="1" as="geometry"/>
                </mxCell>
                <mxCell id="H6KbDGVIdgGkGumHNcC8-12" style="edgeStyle=none;html=1;entryX=0;entryY=0.5;entryDx=0;entryDy=0;fontSize=12;" parent="1" source="H6KbDGVIdgGkGumHNcC8-1" target="H6KbDGVIdgGkGumHNcC8-5" edge="1">
                    <mxGeometry relative="1" as="geometry"/>
                </mxCell>
                <mxCell id="H6KbDGVIdgGkGumHNcC8-1" value="&lt;font style=&quot;font-size: 12px;&quot;&gt;HOSPITAL MANAGEMENT SYSTEM&lt;/font&gt;" style="rounded=0;whiteSpace=wrap;html=1;fontSize=18;" parent="1" vertex="1">
                    <mxGeometry x="30" y="-150" width="130" height="60" as="geometry"/>
                </mxCell>
                <mxCell id="H6KbDGVIdgGkGumHNcC8-13" style="edgeStyle=none;html=1;entryX=0;entryY=0.75;entryDx=0;entryDy=0;fontSize=12;" parent="1" source="H6KbDGVIdgGkGumHNcC8-2" target="H6KbDGVIdgGkGumHNcC8-6" edge="1">
                    <mxGeometry relative="1" as="geometry"/>
                </mxCell>
                <mxCell id="H6KbDGVIdgGkGumHNcC8-2" value="&lt;font style=&quot;font-size: 12px;&quot;&gt;Immediate life threatening&lt;/font&gt;" style="ellipse;whiteSpace=wrap;html=1;fontSize=18;" parent="1" vertex="1">
                    <mxGeometry x="240" y="-300" width="140" height="60" as="geometry"/>
                </mxCell>
                <mxCell id="H6KbDGVIdgGkGumHNcC8-14" style="edgeStyle=none;html=1;entryX=0;entryY=0.5;entryDx=0;entryDy=0;fontSize=12;" parent="1" source="H6KbDGVIdgGkGumHNcC8-3" target="H6KbDGVIdgGkGumHNcC8-7" edge="1">
                    <mxGeometry relative="1" as="geometry"/>
                </mxCell>
                <mxCell id="H6KbDGVIdgGkGumHNcC8-3" value="&lt;font style=&quot;font-size: 12px;&quot;&gt;potential life threatening&lt;/font&gt;" style="ellipse;whiteSpace=wrap;html=1;fontSize=18;" parent="1" vertex="1">
                    <mxGeometry x="240" y="-190" width="130" height="60" as="geometry"/>
                </mxCell>
                <mxCell id="H6KbDGVIdgGkGumHNcC8-15" style="edgeStyle=none;html=1;fontSize=12;" parent="1" source="H6KbDGVIdgGkGumHNcC8-4" edge="1">
                    <mxGeometry relative="1" as="geometry">
                        <mxPoint x="500" y="-120" as="targetPoint"/>
                    </mxGeometry>
                </mxCell>
                <mxCell id="H6KbDGVIdgGkGumHNcC8-4" value="&lt;font style=&quot;font-size: 12px;&quot;&gt;unstable vital sign&lt;/font&gt;" style="ellipse;whiteSpace=wrap;html=1;fontSize=18;" parent="1" vertex="1">
                    <mxGeometry x="240" y="-90" width="130" height="60" as="geometry"/>
                </mxCell>
                <mxCell id="H6KbDGVIdgGkGumHNcC8-16" style="edgeStyle=none;html=1;entryX=0;entryY=0.75;entryDx=0;entryDy=0;fontSize=12;" parent="1" source="H6KbDGVIdgGkGumHNcC8-5" target="H6KbDGVIdgGkGumHNcC8-8" edge="1">
                    <mxGeometry relative="1" as="geometry"/>
                </mxCell>
                <mxCell id="H6KbDGVIdgGkGumHNcC8-5" value="&lt;font style=&quot;font-size: 12px;&quot;&gt;other&lt;/font&gt;" style="ellipse;whiteSpace=wrap;html=1;fontSize=18;" parent="1" vertex="1">
                    <mxGeometry x="240" y="20" width="110" height="50" as="geometry"/>
                </mxCell>
                <mxCell id="H6KbDGVIdgGkGumHNcC8-6" value="&lt;font style=&quot;font-size: 12px;&quot;&gt;Treat as critical&lt;/font&gt;" style="rounded=0;whiteSpace=wrap;html=1;fontSize=18;" parent="1" vertex="1">
                    <mxGeometry x="480" y="-315" width="120" height="60" as="geometry"/>
                </mxCell>
                <mxCell id="H6KbDGVIdgGkGumHNcC8-7" value="treat as emergency" style="rounded=0;whiteSpace=wrap;html=1;fontSize=12;" parent="1" vertex="1">
                    <mxGeometry x="500" y="-150" width="120" height="60" as="geometry"/>
                </mxCell>
                <mxCell id="H6KbDGVIdgGkGumHNcC8-8" value="treat as non-urgent" style="rounded=0;whiteSpace=wrap;html=1;fontSize=12;" parent="1" vertex="1">
                    <mxGeometry x="500" width="120" height="60" as="geometry"/>
                </mxCell>
                <mxCell id="H6KbDGVIdgGkGumHNcC8-17" value="&lt;font style=&quot;font-size: 24px;&quot;&gt;DECISION TREE OF HOSPITAL MANAGEMENT SYSTEM&lt;/font&gt;" style="rounded=0;whiteSpace=wrap;html=1;fontSize=12;" parent="1" vertex="1">
                    <mxGeometry x="230" y="-490" width="430" height="60" as="geometry"/>
                </mxCell>
                <mxCell id="2" value="" style="shape=note;whiteSpace=wrap;html=1;backgroundOutline=1;fontColor=#000000;darkOpacity=0.05;fillColor=#FFF9B2;strokeColor=none;fillStyle=solid;direction=west;gradientDirection=north;gradientColor=#FFF2A1;shadow=1;size=20;pointerEvents=1;" vertex="1" parent="1">
                    <mxGeometry x="300" y="-360" width="140" height="160" as="geometry"/>
                </mxCell>
            </root>
        </mxGraphModel>
    </diagram>
</mxfile>